<svg width="40" height="40" viewBox="0 0 40 40" fill="none" xmlns="http://www.w3.org/2000/svg">
<path d="M7.03091 35.2265C14.5823 41.6725 25.7952 41.5901 33.253 34.9793L31.2569 32.9832C24.9067 38.5005 15.4713 38.5818 9.03015 33.2273L7.03091 35.2265Z" fill="#965251"/>
<path d="M33.2272 9.03016C38.5017 15.3749 38.5017 24.6251 33.2272 30.9698L35.2265 32.9691C41.5912 25.513 41.5912 14.487 35.2265 7.03092L33.2272 9.03016Z" fill="#540111"/>
<path d="M11.1583 31.0991C16.4266 35.3696 24.0283 35.3296 29.253 30.9793L27.2506 28.9769C23.143 32.2422 17.3125 32.2811 13.1639 29.0935L11.1583 31.0991Z" fill="#965251"/>
<path d="M29.2263 13.0311C32.3755 17.1298 32.3755 22.8702 29.2263 26.9689L31.2319 28.9745C35.4628 23.7549 35.4628 16.2451 31.2319 11.0255L29.2263 13.0311Z" fill="#540111"/>
<path d="M15.4487 26.8087C18.3123 28.7836 22.1448 28.747 24.9725 26.6988L22.9412 24.6675C21.2747 25.672 19.1863 25.7045 17.4925 24.7649L15.4487 26.8087Z" fill="#965251"/>
<path d="M5.85785 5.85785C-1.66281 13.3785 -1.94185 25.3985 5.02065 33.2531L7.01677 31.2569C1.15186 24.5066 1.42948 14.2699 7.8497 7.8497C14.2699 1.42948 24.5066 1.15187 31.2569 7.01678L33.253 5.02065C25.3985 -1.94185 13.3785 -1.66281 5.85785 5.85785Z" fill="#FF817A"/>
<path d="M10.0407 9.90795C4.78044 15.1682 4.48471 23.5131 9.15347 29.1202L11.1558 27.1179C7.58108 22.621 7.87332 16.0591 12.0326 11.8998C16.1918 7.74053 22.7537 7.4483 27.2506 11.023L29.253 9.02069C23.6458 4.35193 15.301 4.64765 10.0407 9.90795Z" fill="#FF817A"/>
<path d="M14.29 14.1572C11.3795 17.0678 11.0941 21.6094 13.434 24.8397L24.9725 13.3012C21.7421 10.9614 17.2005 11.2467 14.29 14.1572Z" fill="#FF817A"/>
<path d="M22.2574 20L26.9415 24.6841C28.8804 21.8726 28.8804 18.1274 26.9415 15.3159L22.2574 20Z" fill="#FF817A"/>
</svg>
